<?xml version="1.0" encoding="UTF-8"?>
<!DOCTYPE svg PUBLIC "-//W3C//DTD SVG 1.1//EN" "http://www.w3.org/Graphics/SVG/1.1/DTD/svg11.dtd">
<!-- Creator: CorelDRAW -->
<svg xmlns="http://www.w3.org/2000/svg" xml:space="preserve" width="128px" height="121px" version="1.1" style="shape-rendering:geometricPrecision; text-rendering:geometricPrecision; image-rendering:optimizeQuality; fill-rule:evenodd; clip-rule:evenodd"
viewBox="0 0 128 120.89"
 xmlns:xlink="http://www.w3.org/1999/xlink"
 xmlns:xodm="http://www.corel.com/coreldraw/odm/2003">
 <defs>
  <style type="text/css">
   <![CDATA[
    .str1 {stroke:#382D39;stroke-width:0.25;stroke-miterlimit:2.61313}
    .str0 {stroke:#292B2C;stroke-width:0.13;stroke-miterlimit:2.61313}
    .fil0 {fill:none}
    .fil29 {fill:#AE85BB}
    .fil10 {fill:#AA85BB}
    .fil26 {fill:#9270B0}
    .fil25 {fill:#8F66AA}
    .fil6 {fill:#8B65AA}
    .fil11 {fill:#8755A1}
    .fil7 {fill:#8257A2}
    .fil23 {fill:#8056A2}
    .fil19 {fill:#7D4C9C}
    .fil21 {fill:#7C499A}
    .fil12 {fill:#7A4699}
    .fil17 {fill:#734596}
    .fil27 {fill:#714A97}
    .fil28 {fill:#733D94}
    .fil2 {fill:#704690}
    .fil13 {fill:#693C87}
    .fil22 {fill:#693C88}
    .fil18 {fill:#623B7D}
    .fil16 {fill:#5E3A79}
    .fil20 {fill:#5D3A77}
    .fil15 {fill:#54356A}
    .fil1 {fill:#3F2A4D}
    .fil4 {fill:#3E2A4B}
    .fil24 {fill:#5A3A77}
    .fil3 {fill:#49305C}
    .fil5 {fill:#49315E}
    .fil14 {fill:#4E3467}
    .fil8 {fill:#48305D}
    .fil9 {fill:#47305D}
   ]]>
  </style>
 </defs>
 <g id="Layer_x0020_1">
  <metadata id="CorelCorpID_0Corel-Layer"/>
  <line class="fil0 str0" x1="30.31" y1="115.85" x2="3.37" y2= "81.67" />
  <line class="fil0 str0" x1="3.37" y1="81.67" x2="4.57" y2= "52.13" />
  <line class="fil0 str0" x1="42.38" y1="6.65" x2="70.8" y2= "2.54" />
  <polyline class="fil0 str0" points="70.8,2.54 82.81,7.18 111.51,25.85 "/>
  <line class="fil0 str0" x1="111.51" y1="25.85" x2="124.06" y2= "53.1" />
  <line class="fil0 str0" x1="124.06" y1="53.1" x2="124.6" y2= "71.72" />
  <line class="fil0 str0" x1="124.6" y1="71.72" x2="116.05" y2= "95.99" />
  <line class="fil0 str0" x1="116.05" y1="95.99" x2="85.51" y2= "116.65" />
  <line class="fil0 str0" x1="85.51" y1="116.65" x2="30.31" y2= "115.85" />
  <line class="fil0 str0" x1="70.8" y1="2.54" x2="91.11" y2= "19.91" />
  <line class="fil0 str0" x1="91.11" y1="19.91" x2="111.51" y2= "25.85" />
  <line class="fil0 str0" x1="91.11" y1="19.91" x2="60.81" y2= "20.99" />
  <line class="fil0 str0" x1="60.81" y1="20.99" x2="42.38" y2= "6.65" />
  <line class="fil0 str0" x1="60.81" y1="20.99" x2="27.42" y2= "33.59" />
  <line class="fil0 str0" x1="27.42" y1="33.59" x2="42.38" y2= "6.65" />
  <line class="fil0 str0" x1="27.42" y1="33.59" x2="4.57" y2= "52.13" />
  <line class="fil0 str0" x1="30.31" y1="115.85" x2="23.27" y2= "90.1" />
  <line class="fil0 str0" x1="23.27" y1="90.1" x2="3.37" y2= "81.67" />
  <line class="fil0 str0" x1="23.27" y1="90.1" x2="4.57" y2= "52.13" />
  <line class="fil0 str0" x1="91.11" y1="19.91" x2="99.84" y2= "43.42" />
  <line class="fil0 str0" x1="99.84" y1="43.42" x2="117.46" y2= "64.87" />
  <line class="fil0 str0" x1="117.46" y1="64.87" x2="119.8" y2= "64.99" />
  <line class="fil0 str0" x1="119.8" y1="64.99" x2="124.06" y2= "53.1" />
  <line class="fil0 str0" x1="119.8" y1="64.99" x2="116.05" y2= "95.99" />
  <line class="fil0 str0" x1="99.84" y1="43.42" x2="60.81" y2= "20.99" />
  <line class="fil0 str0" x1="117.46" y1="64.87" x2="93.31" y2= "82.55" />
  <line class="fil0 str0" x1="85.51" y1="116.65" x2="59.82" y2= "108.57" />
  <line class="fil0 str0" x1="59.82" y1="108.57" x2="30.31" y2= "115.85" />
  <line class="fil0 str0" x1="102" y1="76.19" x2="100.35" y2= "87.77" />
  <line class="fil0 str0" x1="100.35" y1="87.77" x2="116.05" y2= "95.99" />
  <line class="fil0 str0" x1="59.82" y1="108.57" x2="23.27" y2= "90.1" />
  <line class="fil0 str0" x1="93.31" y1="82.55" x2="69.32" y2= "100.08" />
  <line class="fil0 str0" x1="69.32" y1="100.08" x2="59.9" y2= "108.59" />
  <polygon class="fil1 str1" points="116.05,95.99 124.6,71.72 124.06,53.1 119.8,64.99 "/>
  <polygon class="fil2 str1" points="88.88,68.27 117.46,64.87 99.84,43.42 "/>
  <polygon class="fil3 str1" points="116.05,95.99 100.35,87.77 102,76.19 117.46,64.87 119.8,64.99 "/>
  <polygon class="fil4 str1" points="100.35,87.77 85.51,116.65 116.05,95.99 "/>
  <polygon class="fil3 str1" points="71.42,98.55 93.62,100.86 100.44,87.82 102,76.19 "/>
  <polygon class="fil5 str1" points="59.9,108.59 69.32,100.08 71.42,98.55 93.62,100.86 85.51,116.65 "/>
  <polygon class="fil6 str1" points="119.8,64.99 124.06,53.1 111.51,25.85 91.11,19.91 99.84,43.42 117.46,64.87 "/>
  <polygon class="fil7 str1" points="99.84,43.42 91.11,19.91 60.81,20.99 "/>
  <polygon class="fil8 str1" points="85.51,116.65 30.31,115.85 59.82,108.57 "/>
  <polygon class="fil9 str1" points="23.27,90.1 59.82,108.57 30.31,115.85 "/>
  <polygon class="fil6 str1" points="91.11,19.91 70.8,2.54 42.38,6.65 60.81,20.99 "/>
  <polygon class="fil10 str1" points="111.51,25.85 82.81,7.18 70.8,2.54 91.11,19.91 "/>
  <polygon class="fil11 str1" points="60.81,20.99 42.38,6.65 27.42,33.59 "/>
  <polygon class="fil12 str1" points="42.38,6.65 19.65,21.41 4.57,52.13 27.42,33.59 "/>
  <polygon class="fil13 str1" points="23.27,90.1 23.27,90.1 27.42,33.59 4.57,52.13 "/>
  <polygon class="fil4 str1" points="30.31,115.85 23.27,90.1 3.37,81.67 "/>
  <polygon class="fil14 str1" points="23.27,90.1 4.57,52.13 3.37,81.67 "/>
  <polygon class="fil15 str1" points="23.27,90.1 50.23,83.92 59.9,108.59 "/>
  <polygon class="fil16 str1" points="50.23,83.92 23.27,90.1 25.6,58.3 "/>
  <polygon class="fil17 str1" points="88.88,68.27 71.42,98.55 50.23,83.92 "/>
  <polygon class="fil18 str1" points="71.42,98.55 50.23,83.92 59.82,108.57 69.32,100.08 "/>
  <polygon class="fil19 str1" points="25.6,58.3 44.73,27.06 27.42,33.59 "/>
  <polygon class="fil20 str1" points="71.42,98.55 117.46,64.87 88.88,68.27 "/>
  <polygon class="fil21 str1" points="44.73,27.06 53.1,38.25 47.1,52.61 25.6,58.3 "/>
  <polygon class="fil22 str1" points="25.6,58.3 47.1,52.61 61.7,64.87 50.23,83.92 "/>
  <polygon class="fil23 str1" points="80.89,46.94 99.84,43.42 60.81,20.99 68.67,36.91 "/>
  <polygon class="fil24 str1" points="88.88,68.27 75.61,63.71 61.7,64.87 50.23,83.92 "/>
  <polygon class="fil22 str1" points="88.88,68.27 99.84,43.42 80.89,46.94 75.61,63.71 "/>
  <polygon class="fil25 str1" points="68.67,36.91 60.81,20.99 44.73,27.06 53.1,38.25 "/>
  <polygon class="fil26 str1" points="47.1,52.61 53.1,38.25 68.67,36.91 80.89,46.94 75.61,63.71 61.7,64.87 "/>
  <polygon class="fil27 str1" points="25.6,58.3 61.7,64.87 50.23,83.92 "/>
  <polygon class="fil28 str1" points="80.89,46.94 88.88,68.27 99.84,43.42 "/>
  <polygon class="fil29 str1" points="53.1,38.25 60.81,20.99 68.67,36.91 "/>
 </g>
</svg>
