<svg xmlns="http://www.w3.org/2000/svg" viewBox="0 0 1100 600" width="1100" height="600"><polygon points="590.6,0.0 655.2,13.4 758.8,0.0" fill="hsl(275,29%,68%)" stroke="hsl(275,29%,63%)" stroke-width="0.5"/><polygon points="504.3,0.0 590.6,0.0 575.6,65.3" fill="hsl(275,29%,69%)" stroke="hsl(275,29%,64%)" stroke-width="0.5"/><polygon points="590.6,0.0 655.2,13.4 575.6,65.3" fill="hsl(275,29%,68%)" stroke="hsl(275,29%,63%)" stroke-width="0.5"/><polygon points="655.2,13.4 758.8,0.0 696.3,62.4" fill="hsl(275,29%,67%)" stroke="hsl(275,29%,62%)" stroke-width="0.5"/><polygon points="655.2,13.4 575.6,65.3 696.3,62.4" fill="hsl(275,29%,67%)" stroke="hsl(275,29%,62%)" stroke-width="0.5"/><polygon points="88.9,91.5 192.5,78.9 98.8,150.8" fill="hsl(275,29%,63%)" stroke="hsl(275,29%,58%)" stroke-width="0.5"/><polygon points="88.9,91.5 0.0,174.1 98.8,150.8" fill="hsl(275,29%,60%)" stroke="hsl(275,29%,55%)" stroke-width="0.5"/><polygon points="192.5,78.9 98.8,150.8 195.7,164.0" fill="hsl(275,29%,61%)" stroke="hsl(275,29%,56%)" stroke-width="0.5"/><polygon points="0.0,174.1 98.8,150.8 9.3,234.7" fill="hsl(275,29%,56%)" stroke="hsl(275,29%,51%)" stroke-width="0.5"/><polygon points="98.8,150.8 9.3,234.7 94.1,276.5" fill="hsl(275,29%,55%)" stroke="hsl(275,29%,50%)" stroke-width="0.5"/><polygon points="98.8,150.8 195.7,164.0 152.7,236.9" fill="hsl(275,29%,56%)" stroke="hsl(275,29%,51%)" stroke-width="0.5"/><polygon points="98.8,150.8 94.1,276.5 152.7,236.9" fill="hsl(275,29%,53%)" stroke="hsl(275,29%,48%)" stroke-width="0.5"/><polygon points="0.0,174.1 9.3,234.7 0.0,340.2" fill="hsl(275,29%,52%)" stroke="hsl(275,29%,47%)" stroke-width="0.5"/><polygon points="9.3,234.7 94.1,276.5 0.0,340.2" fill="hsl(275,29%,52%)" stroke="hsl(275,29%,47%)" stroke-width="0.5"/><polygon points="94.1,276.5 152.7,236.9 108.5,329.5" fill="hsl(275,29%,50%)" stroke="hsl(275,29%,45%)" stroke-width="0.5"/><polygon points="94.1,276.5 0.0,340.2 108.5,329.5" fill="hsl(275,29%,47%)" stroke="hsl(275,29%,42%)" stroke-width="0.5"/><polygon points="152.7,236.9 108.5,329.5 166.0,370.3" fill="hsl(275,29%,50%)" stroke="hsl(275,29%,45%)" stroke-width="0.5"/><polygon points="0.0,340.2 108.5,329.5 18.7,420.8" fill="hsl(275,29%,46%)" stroke="hsl(275,29%,41%)" stroke-width="0.5"/><polygon points="108.5,329.5 166.0,370.3 101.2,451.2" fill="hsl(275,29%,45%)" stroke="hsl(275,29%,40%)" stroke-width="0.5"/><polygon points="108.5,329.5 18.7,420.8 101.2,451.2" fill="hsl(275,29%,42%)" stroke="hsl(275,29%,37%)" stroke-width="0.5"/><polygon points="166.0,370.3 101.2,451.2 170.4,431.9" fill="hsl(275,29%,42%)" stroke="hsl(275,29%,37%)" stroke-width="0.5"/><polygon points="166.0,370.3 170.4,431.9 252.7,437.2" fill="hsl(275,29%,43%)" stroke="hsl(275,29%,38%)" stroke-width="0.5"/><polygon points="0.0,340.2 18.7,420.8 0.0,529.8" fill="hsl(275,29%,41%)" stroke="hsl(275,29%,36%)" stroke-width="0.5"/><polygon points="101.2,451.2 170.4,431.9 102.6,499.3" fill="hsl(275,29%,40%)" stroke="hsl(275,29%,35%)" stroke-width="0.5"/><polygon points="18.7,420.8 101.2,451.2 102.6,499.3" fill="hsl(275,29%,39%)" stroke="hsl(275,29%,34%)" stroke-width="0.5"/><polygon points="18.7,420.8 0.0,529.8 102.6,499.3" fill="hsl(275,29%,37%)" stroke="hsl(275,29%,32%)" stroke-width="0.5"/><polygon points="170.4,431.9 102.6,499.3 142.4,531.7" fill="hsl(275,29%,37%)" stroke="hsl(275,29%,32%)" stroke-width="0.5"/><polygon points="170.4,431.9 252.7,437.2 251.1,495.4" fill="hsl(275,29%,39%)" stroke="hsl(275,29%,34%)" stroke-width="0.5"/><polygon points="170.4,431.9 142.4,531.7 251.1,495.4" fill="hsl(275,29%,36%)" stroke="hsl(275,29%,31%)" stroke-width="0.5"/><polygon points="252.7,437.2 323.1,440.7 251.1,495.4" fill="hsl(275,29%,38%)" stroke="hsl(275,29%,33%)" stroke-width="0.5"/><polygon points="323.1,440.7 251.1,495.4 361.3,500.1" fill="hsl(275,29%,38%)" stroke="hsl(275,29%,33%)" stroke-width="0.5"/><polygon points="511.6,434.3 440.8,497.8 516.5,511.7" fill="hsl(275,29%,36%)" stroke="hsl(275,29%,31%)" stroke-width="0.5"/><polygon points="511.6,434.3 516.5,511.7 598.5,495.6" fill="hsl(275,29%,37%)" stroke="hsl(275,29%,32%)" stroke-width="0.5"/><polygon points="0.0,529.8 102.6,499.3 107.8,587.5" fill="hsl(275,29%,33%)" stroke="hsl(275,29%,28%)" stroke-width="0.5"/><polygon points="0.0,529.8 6.5,585.0 107.8,587.5" fill="hsl(275,29%,32%)" stroke="hsl(275,29%,27%)" stroke-width="0.5"/><polygon points="102.6,499.3 142.4,531.7 107.8,587.5" fill="hsl(275,29%,35%)" stroke="hsl(275,29%,30%)" stroke-width="0.5"/><polygon points="142.4,531.7 251.1,495.4 188.9,588.5" fill="hsl(275,29%,34%)" stroke="hsl(275,29%,29%)" stroke-width="0.5"/><polygon points="142.4,531.7 107.8,587.5 188.9,588.5" fill="hsl(275,29%,32%)" stroke="hsl(275,29%,27%)" stroke-width="0.5"/><polygon points="6.5,585.0 107.8,587.5 243.5,600.0" fill="hsl(275,29%,29%)" stroke="hsl(275,29%,24%)" stroke-width="0.5"/><polygon points="251.1,495.4 188.9,588.5 243.5,600.0" fill="hsl(275,29%,32%)" stroke="hsl(275,29%,27%)" stroke-width="0.5"/><polygon points="107.8,587.5 188.9,588.5 243.5,600.0" fill="hsl(275,29%,29%)" stroke="hsl(275,29%,24%)" stroke-width="0.5"/><polygon points="251.1,495.4 361.3,500.1 327.2,600.0" fill="hsl(275,29%,34%)" stroke="hsl(275,29%,29%)" stroke-width="0.5"/><polygon points="251.1,495.4 243.5,600.0 327.2,600.0" fill="hsl(275,29%,30%)" stroke="hsl(275,29%,25%)" stroke-width="0.5"/><polygon points="361.3,500.1 440.8,497.8 440.4,599.1" fill="hsl(275,29%,34%)" stroke="hsl(275,29%,29%)" stroke-width="0.5"/><polygon points="361.3,500.1 327.2,600.0 440.4,599.1" fill="hsl(275,29%,33%)" stroke="hsl(275,29%,28%)" stroke-width="0.5"/><polygon points="440.8,497.8 516.5,511.7 509.7,591.0" fill="hsl(275,29%,35%)" stroke="hsl(275,29%,30%)" stroke-width="0.5"/><polygon points="440.8,497.8 440.4,599.1 509.7,591.0" fill="hsl(275,29%,31%)" stroke="hsl(275,29%,26%)" stroke-width="0.5"/><polygon points="516.5,511.7 598.5,495.6 601.8,591.2" fill="hsl(275,29%,34%)" stroke="hsl(275,29%,29%)" stroke-width="0.5"/><polygon points="516.5,511.7 509.7,591.0 601.8,591.2" fill="hsl(275,29%,33%)" stroke="hsl(275,29%,28%)" stroke-width="0.5"/><polygon points="440.4,599.1 509.7,591.0 601.8,591.2" fill="hsl(275,29%,29%)" stroke="hsl(275,29%,24%)" stroke-width="0.5"/><polygon points="440.4,599.1 601.8,591.2 693.7,597.7" fill="hsl(275,29%,29%)" stroke="hsl(275,29%,24%)" stroke-width="0.5"/></svg>