<svg xmlns="http://www.w3.org/2000/svg" viewBox="0 0 1920 700" width="1920" height="700"><polygon points="101.4,151.9 315.8,138.7 113.1,302.0" fill="hsl(272,29%,54%)" stroke="hsl(272,29%,49%)" stroke-width="0.5"/><polygon points="315.8,138.7 113.1,302.0 329.5,298.3" fill="hsl(272,29%,53%)" stroke="hsl(272,29%,48%)" stroke-width="0.5"/><polygon points="315.8,138.7 469.1,130.4 399.3,245.1" fill="hsl(272,29%,54%)" stroke="hsl(272,29%,49%)" stroke-width="0.5"/><polygon points="315.8,138.7 329.5,298.3 399.3,245.1" fill="hsl(272,29%,56%)" stroke="hsl(272,29%,51%)" stroke-width="0.5"/><polygon points="469.1,130.4 399.3,245.1 550.0,291.1" fill="hsl(272,29%,52%)" stroke="hsl(272,29%,47%)" stroke-width="0.5"/><polygon points="113.1,302.0 329.5,298.3 281.0,385.5" fill="hsl(272,29%,55%)" stroke="hsl(272,29%,50%)" stroke-width="0.5"/><polygon points="113.1,302.0 163.1,415.8 281.0,385.5" fill="hsl(272,29%,54%)" stroke="hsl(272,29%,49%)" stroke-width="0.5"/><polygon points="329.5,298.3 399.3,245.1 461.5,401.0" fill="hsl(272,29%,53%)" stroke="hsl(272,29%,48%)" stroke-width="0.5"/><polygon points="399.3,245.1 550.0,291.1 461.5,401.0" fill="hsl(272,29%,52%)" stroke="hsl(272,29%,47%)" stroke-width="0.5"/><polygon points="329.5,298.3 281.0,385.5 461.5,401.0" fill="hsl(272,29%,54%)" stroke="hsl(272,29%,49%)" stroke-width="0.5"/><polygon points="550.0,291.1 765.8,318.4 602.0,407.7" fill="hsl(272,29%,55%)" stroke="hsl(272,29%,50%)" stroke-width="0.5"/><polygon points="550.0,291.1 461.5,401.0 602.0,407.7" fill="hsl(272,29%,55%)" stroke="hsl(272,29%,50%)" stroke-width="0.5"/><polygon points="765.8,318.4 602.0,407.7 748.0,414.4" fill="hsl(272,29%,59%)" stroke="hsl(272,29%,54%)" stroke-width="0.5"/><polygon points="163.1,415.8 46.5,577.0 189.9,565.3" fill="hsl(272,29%,54%)" stroke="hsl(272,29%,49%)" stroke-width="0.5"/><polygon points="163.1,415.8 281.0,385.5 253.0,561.7" fill="hsl(272,29%,56%)" stroke="hsl(272,29%,51%)" stroke-width="0.5"/><polygon points="163.1,415.8 189.9,565.3 253.0,561.7" fill="hsl(272,29%,58%)" stroke="hsl(272,29%,53%)" stroke-width="0.5"/><polygon points="281.0,385.5 461.5,401.0 401.5,589.6" fill="hsl(272,29%,58%)" stroke="hsl(272,29%,53%)" stroke-width="0.5"/><polygon points="281.0,385.5 253.0,561.7 401.5,589.6" fill="hsl(272,29%,55%)" stroke="hsl(272,29%,50%)" stroke-width="0.5"/><polygon points="461.5,401.0 602.0,407.7 551.3,592.2" fill="hsl(272,29%,58%)" stroke="hsl(272,29%,53%)" stroke-width="0.5"/><polygon points="461.5,401.0 401.5,589.6 551.3,592.2" fill="hsl(272,29%,61%)" stroke="hsl(272,29%,56%)" stroke-width="0.5"/><polygon points="602.0,407.7 748.0,414.4 765.6,524.4" fill="hsl(272,29%,60%)" stroke="hsl(272,29%,55%)" stroke-width="0.5"/><polygon points="602.0,407.7 551.3,592.2 765.6,524.4" fill="hsl(272,29%,55%)" stroke="hsl(272,29%,50%)" stroke-width="0.5"/><polygon points="46.5,577.0 189.9,565.3 128.1,700.0" fill="hsl(272,29%,56%)" stroke="hsl(272,29%,51%)" stroke-width="0.5"/><polygon points="189.9,565.3 253.0,561.7 305.4,657.1" fill="hsl(272,29%,55%)" stroke="hsl(272,29%,50%)" stroke-width="0.5"/><polygon points="189.9,565.3 128.1,700.0 305.4,657.1" fill="hsl(272,29%,61%)" stroke="hsl(272,29%,56%)" stroke-width="0.5"/><polygon points="253.0,561.7 401.5,589.6 305.4,657.1" fill="hsl(272,29%,60%)" stroke="hsl(272,29%,55%)" stroke-width="0.5"/><polygon points="401.5,589.6 551.3,592.2 445.6,682.6" fill="hsl(272,29%,61%)" stroke="hsl(272,29%,56%)" stroke-width="0.5"/><polygon points="401.5,589.6 305.4,657.1 445.6,682.6" fill="hsl(272,29%,61%)" stroke="hsl(272,29%,56%)" stroke-width="0.5"/><polygon points="128.1,700.0 305.4,657.1 445.6,682.6" fill="hsl(272,29%,56%)" stroke="hsl(272,29%,51%)" stroke-width="0.5"/></svg>