<svg xmlns="http://www.w3.org/2000/svg" viewBox="0 0 1920 1000" width="1920" height="1000"><polygon points="17.7,123.8 150.6,116.4 151.7,284.3" fill="hsl(272,29%,45%)" stroke="hsl(272,29%,40%)" stroke-width="0.5"/><polygon points="150.6,116.4 151.7,284.3 278.0,245.3" fill="hsl(272,29%,45%)" stroke="hsl(272,29%,40%)" stroke-width="0.5"/><polygon points="1821.5,141.3 1679.9,233.1 1801.7,239.0" fill="hsl(272,29%,46%)" stroke="hsl(272,29%,41%)" stroke-width="0.5"/><polygon points="151.7,284.3 278.0,245.3 243.8,402.4" fill="hsl(272,29%,51%)" stroke="hsl(272,29%,46%)" stroke-width="0.5"/><polygon points="151.7,284.3 126.8,344.1 243.8,402.4" fill="hsl(272,29%,48%)" stroke="hsl(272,29%,43%)" stroke-width="0.5"/><polygon points="278.0,245.3 343.5,244.5 385.7,347.5" fill="hsl(272,29%,48%)" stroke="hsl(272,29%,43%)" stroke-width="0.5"/><polygon points="278.0,245.3 243.8,402.4 385.7,347.5" fill="hsl(272,29%,48%)" stroke="hsl(272,29%,43%)" stroke-width="0.5"/><polygon points="1679.9,233.1 1801.7,239.0 1687.5,343.2" fill="hsl(272,29%,47%)" stroke="hsl(272,29%,42%)" stroke-width="0.5"/><polygon points="1801.7,239.0 1687.5,343.2 1785.6,355.6" fill="hsl(272,29%,47%)" stroke="hsl(272,29%,42%)" stroke-width="0.5"/><polygon points="126.8,344.1 243.8,402.4 90.4,536.6" fill="hsl(272,29%,51%)" stroke="hsl(272,29%,46%)" stroke-width="0.5"/><polygon points="243.8,402.4 385.7,347.5 294.6,477.8" fill="hsl(272,29%,52%)" stroke="hsl(272,29%,47%)" stroke-width="0.5"/><polygon points="243.8,402.4 90.4,536.6 294.6,477.8" fill="hsl(272,29%,54%)" stroke="hsl(272,29%,49%)" stroke-width="0.5"/><polygon points="385.7,347.5 294.6,477.8 372.7,528.2" fill="hsl(272,29%,58%)" stroke="hsl(272,29%,53%)" stroke-width="0.5"/><polygon points="385.7,347.5 499.2,393.0 503.5,475.8" fill="hsl(272,29%,50%)" stroke="hsl(272,29%,45%)" stroke-width="0.5"/><polygon points="385.7,347.5 372.7,528.2 503.5,475.8" fill="hsl(272,29%,54%)" stroke="hsl(272,29%,49%)" stroke-width="0.5"/><polygon points="499.2,393.0 611.3,400.5 503.5,475.8" fill="hsl(272,29%,55%)" stroke="hsl(272,29%,50%)" stroke-width="0.5"/><polygon points="611.3,400.5 788.2,374.0 663.1,523.0" fill="hsl(272,29%,56%)" stroke="hsl(272,29%,51%)" stroke-width="0.5"/><polygon points="611.3,400.5 503.5,475.8 663.1,523.0" fill="hsl(272,29%,53%)" stroke="hsl(272,29%,48%)" stroke-width="0.5"/><polygon points="788.2,374.0 663.1,523.0 729.3,539.3" fill="hsl(272,29%,57%)" stroke="hsl(272,29%,52%)" stroke-width="0.5"/><polygon points="788.2,374.0 890.9,367.7 879.0,531.9" fill="hsl(272,29%,57%)" stroke="hsl(272,29%,52%)" stroke-width="0.5"/><polygon points="788.2,374.0 729.3,539.3 879.0,531.9" fill="hsl(272,29%,59%)" stroke="hsl(272,29%,54%)" stroke-width="0.5"/><polygon points="890.9,367.7 1064.3,390.2 1032.7,461.7" fill="hsl(272,29%,51%)" stroke="hsl(272,29%,46%)" stroke-width="0.5"/><polygon points="890.9,367.7 879.0,531.9 1032.7,461.7" fill="hsl(272,29%,53%)" stroke="hsl(272,29%,48%)" stroke-width="0.5"/><polygon points="1188.5,379.8 1243.3,376.5 1154.2,484.5" fill="hsl(272,29%,51%)" stroke="hsl(272,29%,46%)" stroke-width="0.5"/><polygon points="1064.3,390.2 1188.5,379.8 1154.2,484.5" fill="hsl(272,29%,57%)" stroke="hsl(272,29%,52%)" stroke-width="0.5"/><polygon points="1064.3,390.2 1032.7,461.7 1154.2,484.5" fill="hsl(272,29%,57%)" stroke="hsl(272,29%,52%)" stroke-width="0.5"/><polygon points="1243.3,376.5 1372.0,401.4 1280.5,526.8" fill="hsl(272,29%,57%)" stroke="hsl(272,29%,52%)" stroke-width="0.5"/><polygon points="1243.3,376.5 1154.2,484.5 1280.5,526.8" fill="hsl(272,29%,59%)" stroke="hsl(272,29%,54%)" stroke-width="0.5"/><polygon points="1372.0,401.4 1501.8,403.8 1418.2,464.9" fill="hsl(272,29%,51%)" stroke="hsl(272,29%,46%)" stroke-width="0.5"/><polygon points="1372.0,401.4 1280.5,526.8 1418.2,464.9" fill="hsl(272,29%,55%)" stroke="hsl(272,29%,50%)" stroke-width="0.5"/><polygon points="1501.8,403.8 1687.5,343.2 1523.2,476.7" fill="hsl(272,29%,54%)" stroke="hsl(272,29%,49%)" stroke-width="0.5"/><polygon points="1501.8,403.8 1418.2,464.9 1523.2,476.7" fill="hsl(272,29%,51%)" stroke="hsl(272,29%,46%)" stroke-width="0.5"/><polygon points="1687.5,343.2 1523.2,476.7 1685.3,486.8" fill="hsl(272,29%,54%)" stroke="hsl(272,29%,49%)" stroke-width="0.5"/><polygon points="1687.5,343.2 1785.6,355.6 1758.6,483.3" fill="hsl(272,29%,53%)" stroke="hsl(272,29%,48%)" stroke-width="0.5"/><polygon points="1687.5,343.2 1685.3,486.8 1758.6,483.3" fill="hsl(272,29%,55%)" stroke="hsl(272,29%,50%)" stroke-width="0.5"/><polygon points="90.4,536.6 294.6,477.8 151.9,600.8" fill="hsl(272,29%,59%)" stroke="hsl(272,29%,54%)" stroke-width="0.5"/><polygon points="90.4,536.6 23.5,635.8 151.9,600.8" fill="hsl(272,29%,62%)" stroke="hsl(272,29%,57%)" stroke-width="0.5"/><polygon points="294.6,477.8 372.7,528.2 280.9,620.2" fill="hsl(272,29%,56%)" stroke="hsl(272,29%,51%)" stroke-width="0.5"/><polygon points="294.6,477.8 151.9,600.8 280.9,620.2" fill="hsl(272,29%,56%)" stroke="hsl(272,29%,51%)" stroke-width="0.5"/><polygon points="372.7,528.2 503.5,475.8 406.3,591.3" fill="hsl(272,29%,60%)" stroke="hsl(272,29%,55%)" stroke-width="0.5"/><polygon points="372.7,528.2 280.9,620.2 406.3,591.3" fill="hsl(272,29%,59%)" stroke="hsl(272,29%,54%)" stroke-width="0.5"/><polygon points="503.5,475.8 406.3,591.3 496.7,658.3" fill="hsl(272,29%,57%)" stroke="hsl(272,29%,52%)" stroke-width="0.5"/><polygon points="503.5,475.8 663.1,523.0 624.8,623.8" fill="hsl(272,29%,57%)" stroke="hsl(272,29%,52%)" stroke-width="0.5"/><polygon points="503.5,475.8 496.7,658.3 624.8,623.8" fill="hsl(272,29%,58%)" stroke="hsl(272,29%,53%)" stroke-width="0.5"/><polygon points="663.1,523.0 729.3,539.3 624.8,623.8" fill="hsl(272,29%,62%)" stroke="hsl(272,29%,57%)" stroke-width="0.5"/><polygon points="729.3,539.3 879.0,531.9 754.2,664.6" fill="hsl(272,29%,57%)" stroke="hsl(272,29%,52%)" stroke-width="0.5"/><polygon points="729.3,539.3 624.8,623.8 754.2,664.6" fill="hsl(272,29%,61%)" stroke="hsl(272,29%,56%)" stroke-width="0.5"/><polygon points="879.0,531.9 754.2,664.6 914.4,620.9" fill="hsl(272,29%,57%)" stroke="hsl(272,29%,52%)" stroke-width="0.5"/><polygon points="879.0,531.9 1032.7,461.7 1010.9,599.3" fill="hsl(272,29%,56%)" stroke="hsl(272,29%,51%)" stroke-width="0.5"/><polygon points="879.0,531.9 914.4,620.9 1010.9,599.3" fill="hsl(272,29%,58%)" stroke="hsl(272,29%,53%)" stroke-width="0.5"/><polygon points="1032.7,461.7 1154.2,484.5 1152.1,589.4" fill="hsl(272,29%,59%)" stroke="hsl(272,29%,54%)" stroke-width="0.5"/><polygon points="1032.7,461.7 1010.9,599.3 1152.1,589.4" fill="hsl(272,29%,61%)" stroke="hsl(272,29%,56%)" stroke-width="0.5"/><polygon points="1154.2,484.5 1280.5,526.8 1152.1,589.4" fill="hsl(272,29%,55%)" stroke="hsl(272,29%,50%)" stroke-width="0.5"/><polygon points="1280.5,526.8 1418.2,464.9 1296.0,603.6" fill="hsl(272,29%,57%)" stroke="hsl(272,29%,52%)" stroke-width="0.5"/><polygon points="1280.5,526.8 1152.1,589.4 1296.0,603.6" fill="hsl(272,29%,62%)" stroke="hsl(272,29%,57%)" stroke-width="0.5"/><polygon points="1418.2,464.9 1523.2,476.7 1449.5,630.3" fill="hsl(272,29%,61%)" stroke="hsl(272,29%,56%)" stroke-width="0.5"/><polygon points="1418.2,464.9 1296.0,603.6 1449.5,630.3" fill="hsl(272,29%,62%)" stroke="hsl(272,29%,57%)" stroke-width="0.5"/><polygon points="1523.2,476.7 1449.5,630.3 1500.1,641.4" fill="hsl(272,29%,62%)" stroke="hsl(272,29%,57%)" stroke-width="0.5"/><polygon points="1685.3,486.8 1758.6,483.3 1672.0,621.2" fill="hsl(272,29%,58%)" stroke="hsl(272,29%,53%)" stroke-width="0.5"/><polygon points="1523.2,476.7 1685.3,486.8 1672.0,621.2" fill="hsl(272,29%,57%)" stroke="hsl(272,29%,52%)" stroke-width="0.5"/><polygon points="1523.2,476.7 1500.1,641.4 1672.0,621.2" fill="hsl(272,29%,55%)" stroke="hsl(272,29%,50%)" stroke-width="0.5"/><polygon points="1758.6,483.3 1672.0,621.2 1811.2,651.1" fill="hsl(272,29%,60%)" stroke="hsl(272,29%,55%)" stroke-width="0.5"/><polygon points="23.5,635.8 151.9,600.8 99.8,749.5" fill="hsl(272,29%,58%)" stroke="hsl(272,29%,53%)" stroke-width="0.5"/><polygon points="151.9,600.8 280.9,620.2 283.5,730.6" fill="hsl(272,29%,64%)" stroke="hsl(272,29%,59%)" stroke-width="0.5"/><polygon points="151.9,600.8 99.8,749.5 283.5,730.6" fill="hsl(272,29%,61%)" stroke="hsl(272,29%,56%)" stroke-width="0.5"/><polygon points="280.9,620.2 406.3,591.3 371.4,754.3" fill="hsl(272,29%,59%)" stroke="hsl(272,29%,54%)" stroke-width="0.5"/><polygon points="280.9,620.2 283.5,730.6 371.4,754.3" fill="hsl(272,29%,62%)" stroke="hsl(272,29%,57%)" stroke-width="0.5"/><polygon points="406.3,591.3 496.7,658.3 371.4,754.3" fill="hsl(272,29%,61%)" stroke="hsl(272,29%,56%)" stroke-width="0.5"/><polygon points="1500.1,641.4 1672.0,621.2 1512.7,711.5" fill="hsl(272,29%,65%)" stroke="hsl(272,29%,60%)" stroke-width="0.5"/><polygon points="1449.5,630.3 1500.1,641.4 1512.7,711.5" fill="hsl(272,29%,62%)" stroke="hsl(272,29%,57%)" stroke-width="0.5"/><polygon points="1672.0,621.2 1811.2,651.1 1699.4,730.1" fill="hsl(272,29%,61%)" stroke="hsl(272,29%,56%)" stroke-width="0.5"/><polygon points="1672.0,621.2 1512.7,711.5 1699.4,730.1" fill="hsl(272,29%,59%)" stroke="hsl(272,29%,54%)" stroke-width="0.5"/><polygon points="1811.2,651.1 1699.4,730.1 1806.9,762.4" fill="hsl(272,29%,66%)" stroke="hsl(272,29%,61%)" stroke-width="0.5"/><polygon points="99.8,749.5 283.5,730.6 150.1,856.4" fill="hsl(272,29%,63%)" stroke="hsl(272,29%,58%)" stroke-width="0.5"/><polygon points="99.8,749.5 17.0,891.6 150.1,856.4" fill="hsl(272,29%,69%)" stroke="hsl(272,29%,64%)" stroke-width="0.5"/><polygon points="1699.4,730.1 1806.9,762.4 1797.1,838.4" fill="hsl(272,29%,64%)" stroke="hsl(272,29%,59%)" stroke-width="0.5"/></svg>