<svg xmlns="http://www.w3.org/2000/svg" viewBox="0 0 1920 700" width="1920" height="700"><polygon points="1843.9,23.8 1744.8,114.8 1840.2,79.5" fill="hsl(272,29%,54%)" stroke="hsl(272,29%,49%)" stroke-width="0.5"/><polygon points="107.6,131.5 193.7,127.1 85.4,209.4" fill="hsl(272,29%,53%)" stroke="hsl(272,29%,48%)" stroke-width="0.5"/><polygon points="107.6,131.5 31.0,192.3 85.4,209.4" fill="hsl(272,29%,57%)" stroke="hsl(272,29%,52%)" stroke-width="0.5"/><polygon points="193.7,127.1 274.3,129.3 234.7,189.5" fill="hsl(272,29%,53%)" stroke="hsl(272,29%,48%)" stroke-width="0.5"/><polygon points="193.7,127.1 85.4,209.4 234.7,189.5" fill="hsl(272,29%,59%)" stroke="hsl(272,29%,54%)" stroke-width="0.5"/><polygon points="274.3,129.3 234.7,189.5 325.5,210.2" fill="hsl(272,29%,59%)" stroke="hsl(272,29%,54%)" stroke-width="0.5"/><polygon points="1644.1,106.2 1744.8,114.8 1688.6,230.0" fill="hsl(272,29%,53%)" stroke="hsl(272,29%,48%)" stroke-width="0.5"/><polygon points="1644.1,106.2 1641.9,229.8 1688.6,230.0" fill="hsl(272,29%,55%)" stroke="hsl(272,29%,50%)" stroke-width="0.5"/><polygon points="1744.8,114.8 1840.2,79.5 1827.1,193.7" fill="hsl(272,29%,53%)" stroke="hsl(272,29%,48%)" stroke-width="0.5"/><polygon points="1744.8,114.8 1688.6,230.0 1827.1,193.7" fill="hsl(272,29%,55%)" stroke="hsl(272,29%,50%)" stroke-width="0.5"/><polygon points="31.0,192.3 85.4,209.4 73.4,280.8" fill="hsl(272,29%,57%)" stroke="hsl(272,29%,52%)" stroke-width="0.5"/><polygon points="31.0,192.3 26.7,311.2 73.4,280.8" fill="hsl(272,29%,58%)" stroke="hsl(272,29%,53%)" stroke-width="0.5"/><polygon points="85.4,209.4 234.7,189.5 193.1,309.0" fill="hsl(272,29%,57%)" stroke="hsl(272,29%,52%)" stroke-width="0.5"/><polygon points="85.4,209.4 73.4,280.8 193.1,309.0" fill="hsl(272,29%,57%)" stroke="hsl(272,29%,52%)" stroke-width="0.5"/><polygon points="234.7,189.5 325.5,210.2 292.9,278.3" fill="hsl(272,29%,57%)" stroke="hsl(272,29%,52%)" stroke-width="0.5"/><polygon points="234.7,189.5 193.1,309.0 292.9,278.3" fill="hsl(272,29%,58%)" stroke="hsl(272,29%,53%)" stroke-width="0.5"/><polygon points="325.5,210.2 386.2,221.7 292.9,278.3" fill="hsl(272,29%,53%)" stroke="hsl(272,29%,48%)" stroke-width="0.5"/><polygon points="386.2,221.7 292.9,278.3 424.8,312.9" fill="hsl(272,29%,56%)" stroke="hsl(272,29%,51%)" stroke-width="0.5"/><polygon points="1641.9,229.8 1688.6,230.0 1697.9,319.9" fill="hsl(272,29%,58%)" stroke="hsl(272,29%,53%)" stroke-width="0.5"/><polygon points="1641.9,229.8 1594.1,315.2 1697.9,319.9" fill="hsl(272,29%,58%)" stroke="hsl(272,29%,53%)" stroke-width="0.5"/><polygon points="1688.6,230.0 1827.1,193.7 1791.8,300.0" fill="hsl(272,29%,59%)" stroke="hsl(272,29%,54%)" stroke-width="0.5"/><polygon points="1688.6,230.0 1697.9,319.9 1791.8,300.0" fill="hsl(272,29%,53%)" stroke="hsl(272,29%,48%)" stroke-width="0.5"/><polygon points="26.7,311.2 73.4,280.8 89.2,384.3" fill="hsl(272,29%,60%)" stroke="hsl(272,29%,55%)" stroke-width="0.5"/><polygon points="26.7,311.2 13.7,415.9 89.2,384.3" fill="hsl(272,29%,56%)" stroke="hsl(272,29%,51%)" stroke-width="0.5"/><polygon points="73.4,280.8 193.1,309.0 89.2,384.3" fill="hsl(272,29%,53%)" stroke="hsl(272,29%,48%)" stroke-width="0.5"/><polygon points="193.1,309.0 89.2,384.3 171.2,411.5" fill="hsl(272,29%,57%)" stroke="hsl(272,29%,52%)" stroke-width="0.5"/><polygon points="193.1,309.0 292.9,278.3 323.8,369.2" fill="hsl(272,29%,60%)" stroke="hsl(272,29%,55%)" stroke-width="0.5"/><polygon points="193.1,309.0 171.2,411.5 323.8,369.2" fill="hsl(272,29%,56%)" stroke="hsl(272,29%,51%)" stroke-width="0.5"/><polygon points="292.9,278.3 424.8,312.9 323.8,369.2" fill="hsl(272,29%,58%)" stroke="hsl(272,29%,53%)" stroke-width="0.5"/><polygon points="424.8,312.9 323.8,369.2 397.0,413.5" fill="hsl(272,29%,60%)" stroke="hsl(272,29%,55%)" stroke-width="0.5"/><polygon points="424.8,312.9 397.0,413.5 476.2,405.1" fill="hsl(272,29%,53%)" stroke="hsl(272,29%,48%)" stroke-width="0.5"/><polygon points="1594.1,315.2 1697.9,319.9 1597.0,403.1" fill="hsl(272,29%,53%)" stroke="hsl(272,29%,48%)" stroke-width="0.5"/><polygon points="1697.9,319.9 1791.8,300.0 1745.6,391.5" fill="hsl(272,29%,58%)" stroke="hsl(272,29%,53%)" stroke-width="0.5"/><polygon points="1697.9,319.9 1597.0,403.1 1745.6,391.5" fill="hsl(272,29%,55%)" stroke="hsl(272,29%,50%)" stroke-width="0.5"/><polygon points="1791.8,300.0 1745.6,391.5 1809.5,395.6" fill="hsl(272,29%,55%)" stroke="hsl(272,29%,50%)" stroke-width="0.5"/><polygon points="13.7,415.9 89.2,384.3 99.3,468.9" fill="hsl(272,29%,56%)" stroke="hsl(272,29%,51%)" stroke-width="0.5"/><polygon points="13.7,415.9 17.5,523.1 99.3,468.9" fill="hsl(272,29%,55%)" stroke="hsl(272,29%,50%)" stroke-width="0.5"/><polygon points="89.2,384.3 171.2,411.5 99.3,468.9" fill="hsl(272,29%,54%)" stroke="hsl(272,29%,49%)" stroke-width="0.5"/><polygon points="171.2,411.5 99.3,468.9 234.7,509.0" fill="hsl(272,29%,55%)" stroke="hsl(272,29%,50%)" stroke-width="0.5"/><polygon points="171.2,411.5 323.8,369.2 323.8,479.8" fill="hsl(272,29%,54%)" stroke="hsl(272,29%,49%)" stroke-width="0.5"/><polygon points="171.2,411.5 234.7,509.0 323.8,479.8" fill="hsl(272,29%,59%)" stroke="hsl(272,29%,54%)" stroke-width="0.5"/><polygon points="323.8,369.2 397.0,413.5 323.8,479.8" fill="hsl(272,29%,56%)" stroke="hsl(272,29%,51%)" stroke-width="0.5"/><polygon points="397.0,413.5 323.8,479.8 430.2,525.8" fill="hsl(272,29%,56%)" stroke="hsl(272,29%,51%)" stroke-width="0.5"/><polygon points="397.0,413.5 476.2,405.1 501.5,480.0" fill="hsl(272,29%,58%)" stroke="hsl(272,29%,53%)" stroke-width="0.5"/><polygon points="397.0,413.5 430.2,525.8 501.5,480.0" fill="hsl(272,29%,60%)" stroke="hsl(272,29%,55%)" stroke-width="0.5"/><polygon points="476.2,405.1 586.7,418.0 501.5,480.0" fill="hsl(272,29%,59%)" stroke="hsl(272,29%,54%)" stroke-width="0.5"/><polygon points="586.7,418.0 703.9,412.2 620.5,484.8" fill="hsl(272,29%,58%)" stroke="hsl(272,29%,53%)" stroke-width="0.5"/><polygon points="586.7,418.0 501.5,480.0 620.5,484.8" fill="hsl(272,29%,60%)" stroke="hsl(272,29%,55%)" stroke-width="0.5"/><polygon points="703.9,412.2 777.5,413.6 721.9,474.0" fill="hsl(272,29%,58%)" stroke="hsl(272,29%,53%)" stroke-width="0.5"/><polygon points="703.9,412.2 620.5,484.8 721.9,474.0" fill="hsl(272,29%,54%)" stroke="hsl(272,29%,49%)" stroke-width="0.5"/><polygon points="777.5,413.6 721.9,474.0 798.8,488.2" fill="hsl(272,29%,54%)" stroke="hsl(272,29%,49%)" stroke-width="0.5"/><polygon points="777.5,413.6 798.8,488.2 881.2,474.2" fill="hsl(272,29%,59%)" stroke="hsl(272,29%,54%)" stroke-width="0.5"/><polygon points="1042.7,432.3 989.8,471.1 1126.5,471.0" fill="hsl(272,29%,59%)" stroke="hsl(272,29%,54%)" stroke-width="0.5"/><polygon points="1221.7,409.9 1126.5,471.0 1191.2,508.4" fill="hsl(272,29%,59%)" stroke="hsl(272,29%,54%)" stroke-width="0.5"/><polygon points="1221.7,409.9 1341.2,372.8 1339.7,477.2" fill="hsl(272,29%,54%)" stroke="hsl(272,29%,49%)" stroke-width="0.5"/><polygon points="1221.7,409.9 1191.2,508.4 1339.7,477.2" fill="hsl(272,29%,54%)" stroke="hsl(272,29%,49%)" stroke-width="0.5"/><polygon points="1341.2,372.8 1435.9,432.0 1339.7,477.2" fill="hsl(272,29%,60%)" stroke="hsl(272,29%,55%)" stroke-width="0.5"/><polygon points="1435.9,432.0 1339.7,477.2 1396.8,510.1" fill="hsl(272,29%,61%)" stroke="hsl(272,29%,56%)" stroke-width="0.5"/><polygon points="1512.1,420.7 1597.0,403.1 1502.8,515.6" fill="hsl(272,29%,55%)" stroke="hsl(272,29%,50%)" stroke-width="0.5"/><polygon points="1435.9,432.0 1512.1,420.7 1502.8,515.6" fill="hsl(272,29%,53%)" stroke="hsl(272,29%,48%)" stroke-width="0.5"/><polygon points="1435.9,432.0 1396.8,510.1 1502.8,515.6" fill="hsl(272,29%,60%)" stroke="hsl(272,29%,55%)" stroke-width="0.5"/><polygon points="1597.0,403.1 1502.8,515.6 1649.5,519.5" fill="hsl(272,29%,60%)" stroke="hsl(272,29%,55%)" stroke-width="0.5"/><polygon points="1597.0,403.1 1745.6,391.5 1719.1,505.2" fill="hsl(272,29%,53%)" stroke="hsl(272,29%,48%)" stroke-width="0.5"/><polygon points="1597.0,403.1 1649.5,519.5 1719.1,505.2" fill="hsl(272,29%,55%)" stroke="hsl(272,29%,50%)" stroke-width="0.5"/><polygon points="1745.6,391.5 1809.5,395.6 1823.6,499.3" fill="hsl(272,29%,53%)" stroke="hsl(272,29%,48%)" stroke-width="0.5"/><polygon points="1745.6,391.5 1719.1,505.2 1823.6,499.3" fill="hsl(272,29%,56%)" stroke="hsl(272,29%,51%)" stroke-width="0.5"/><polygon points="17.5,523.1 99.3,468.9 77.0,615.2" fill="hsl(272,29%,56%)" stroke="hsl(272,29%,51%)" stroke-width="0.5"/><polygon points="17.5,523.1 16.7,626.9 77.0,615.2" fill="hsl(272,29%,56%)" stroke="hsl(272,29%,51%)" stroke-width="0.5"/><polygon points="99.3,468.9 234.7,509.0 77.0,615.2" fill="hsl(272,29%,54%)" stroke="hsl(272,29%,49%)" stroke-width="0.5"/><polygon points="234.7,509.0 77.0,615.2 230.1,613.0" fill="hsl(272,29%,56%)" stroke="hsl(272,29%,51%)" stroke-width="0.5"/><polygon points="234.7,509.0 323.8,479.8 328.8,604.5" fill="hsl(272,29%,61%)" stroke="hsl(272,29%,56%)" stroke-width="0.5"/><polygon points="234.7,509.0 230.1,613.0 328.8,604.5" fill="hsl(272,29%,56%)" stroke="hsl(272,29%,51%)" stroke-width="0.5"/><polygon points="323.8,479.8 430.2,525.8 328.8,604.5" fill="hsl(272,29%,60%)" stroke="hsl(272,29%,55%)" stroke-width="0.5"/><polygon points="430.2,525.8 328.8,604.5 412.6,625.6" fill="hsl(272,29%,61%)" stroke="hsl(272,29%,56%)" stroke-width="0.5"/><polygon points="430.2,525.8 501.5,480.0 532.6,621.5" fill="hsl(272,29%,57%)" stroke="hsl(272,29%,52%)" stroke-width="0.5"/><polygon points="430.2,525.8 412.6,625.6 532.6,621.5" fill="hsl(272,29%,54%)" stroke="hsl(272,29%,49%)" stroke-width="0.5"/><polygon points="501.5,480.0 620.5,484.8 597.8,577.4" fill="hsl(272,29%,60%)" stroke="hsl(272,29%,55%)" stroke-width="0.5"/><polygon points="501.5,480.0 532.6,621.5 597.8,577.4" fill="hsl(272,29%,61%)" stroke="hsl(272,29%,56%)" stroke-width="0.5"/><polygon points="620.5,484.8 721.9,474.0 683.5,597.9" fill="hsl(272,29%,60%)" stroke="hsl(272,29%,55%)" stroke-width="0.5"/><polygon points="620.5,484.8 597.8,577.4 683.5,597.9" fill="hsl(272,29%,54%)" stroke="hsl(272,29%,49%)" stroke-width="0.5"/><polygon points="721.9,474.0 798.8,488.2 798.8,585.7" fill="hsl(272,29%,54%)" stroke="hsl(272,29%,49%)" stroke-width="0.5"/><polygon points="721.9,474.0 683.5,597.9 798.8,585.7" fill="hsl(272,29%,54%)" stroke="hsl(272,29%,49%)" stroke-width="0.5"/><polygon points="798.8,488.2 881.2,474.2 889.3,589.8" fill="hsl(272,29%,58%)" stroke="hsl(272,29%,53%)" stroke-width="0.5"/><polygon points="798.8,488.2 798.8,585.7 889.3,589.8" fill="hsl(272,29%,60%)" stroke="hsl(272,29%,55%)" stroke-width="0.5"/><polygon points="881.2,474.2 989.8,471.1 889.3,589.8" fill="hsl(272,29%,54%)" stroke="hsl(272,29%,49%)" stroke-width="0.5"/><polygon points="989.8,471.1 889.3,589.8 980.5,599.8" fill="hsl(272,29%,55%)" stroke="hsl(272,29%,50%)" stroke-width="0.5"/><polygon points="989.8,471.1 1126.5,471.0 1097.6,621.3" fill="hsl(272,29%,56%)" stroke="hsl(272,29%,51%)" stroke-width="0.5"/><polygon points="989.8,471.1 980.5,599.8 1097.6,621.3" fill="hsl(272,29%,56%)" stroke="hsl(272,29%,51%)" stroke-width="0.5"/><polygon points="1126.5,471.0 1191.2,508.4 1097.6,621.3" fill="hsl(272,29%,59%)" stroke="hsl(272,29%,54%)" stroke-width="0.5"/><polygon points="1191.2,508.4 1339.7,477.2 1233.7,572.8" fill="hsl(272,29%,61%)" stroke="hsl(272,29%,56%)" stroke-width="0.5"/><polygon points="1191.2,508.4 1097.6,621.3 1233.7,572.8" fill="hsl(272,29%,62%)" stroke="hsl(272,29%,57%)" stroke-width="0.5"/><polygon points="1339.7,477.2 1233.7,572.8 1309.9,626.7" fill="hsl(272,29%,58%)" stroke="hsl(272,29%,53%)" stroke-width="0.5"/><polygon points="1339.7,477.2 1396.8,510.1 1392.1,586.6" fill="hsl(272,29%,54%)" stroke="hsl(272,29%,49%)" stroke-width="0.5"/><polygon points="1339.7,477.2 1309.9,626.7 1392.1,586.6" fill="hsl(272,29%,56%)" stroke="hsl(272,29%,51%)" stroke-width="0.5"/><polygon points="1396.8,510.1 1502.8,515.6 1392.1,586.6" fill="hsl(272,29%,57%)" stroke="hsl(272,29%,52%)" stroke-width="0.5"/><polygon points="1502.8,515.6 1649.5,519.5 1528.5,592.5" fill="hsl(272,29%,57%)" stroke="hsl(272,29%,52%)" stroke-width="0.5"/><polygon points="1502.8,515.6 1392.1,586.6 1528.5,592.5" fill="hsl(272,29%,54%)" stroke="hsl(272,29%,49%)" stroke-width="0.5"/><polygon points="1649.5,519.5 1528.5,592.5 1648.9,611.8" fill="hsl(272,29%,56%)" stroke="hsl(272,29%,51%)" stroke-width="0.5"/><polygon points="1649.5,519.5 1719.1,505.2 1691.8,621.8" fill="hsl(272,29%,57%)" stroke="hsl(272,29%,52%)" stroke-width="0.5"/><polygon points="1649.5,519.5 1648.9,611.8 1691.8,621.8" fill="hsl(272,29%,57%)" stroke="hsl(272,29%,52%)" stroke-width="0.5"/><polygon points="1719.1,505.2 1823.6,499.3 1806.6,581.0" fill="hsl(272,29%,59%)" stroke="hsl(272,29%,54%)" stroke-width="0.5"/><polygon points="1719.1,505.2 1691.8,621.8 1806.6,581.0" fill="hsl(272,29%,56%)" stroke="hsl(272,29%,51%)" stroke-width="0.5"/></svg>