<svg xmlns="http://www.w3.org/2000/svg" viewBox="0 0 1920 1200" width="1920" height="1200"><polygon points="391.9,62.9 435.2,83.8 381.6,196.7" fill="hsl(272,29%,35%)" stroke="hsl(272,29%,30%)" stroke-width="0.5"/><polygon points="435.2,83.8 381.6,196.7 483.2,208.2" fill="hsl(272,29%,36%)" stroke="hsl(272,29%,31%)" stroke-width="0.5"/><polygon points="435.2,83.8 539.2,62.6 533.0,169.8" fill="hsl(272,29%,40%)" stroke="hsl(272,29%,35%)" stroke-width="0.5"/><polygon points="435.2,83.8 483.2,208.2 533.0,169.8" fill="hsl(272,29%,41%)" stroke="hsl(272,29%,36%)" stroke-width="0.5"/><polygon points="381.6,196.7 483.2,208.2 467.8,295.0" fill="hsl(272,29%,43%)" stroke="hsl(272,29%,38%)" stroke-width="0.5"/><polygon points="381.6,196.7 337.3,302.1 467.8,295.0" fill="hsl(272,29%,43%)" stroke="hsl(272,29%,38%)" stroke-width="0.5"/><polygon points="483.2,208.2 533.0,169.8 554.3,268.3" fill="hsl(272,29%,38%)" stroke="hsl(272,29%,33%)" stroke-width="0.5"/><polygon points="483.2,208.2 467.8,295.0 554.3,268.3" fill="hsl(272,29%,45%)" stroke="hsl(272,29%,40%)" stroke-width="0.5"/><polygon points="533.0,169.8 622.1,171.8 554.3,268.3" fill="hsl(272,29%,40%)" stroke="hsl(272,29%,35%)" stroke-width="0.5"/><polygon points="337.3,302.1 467.8,295.0 441.8,381.8" fill="hsl(272,29%,46%)" stroke="hsl(272,29%,41%)" stroke-width="0.5"/><polygon points="337.3,302.1 348.3,375.3 441.8,381.8" fill="hsl(272,29%,50%)" stroke="hsl(272,29%,45%)" stroke-width="0.5"/><polygon points="467.8,295.0 554.3,268.3 573.1,349.0" fill="hsl(272,29%,42%)" stroke="hsl(272,29%,37%)" stroke-width="0.5"/><polygon points="467.8,295.0 441.8,381.8 573.1,349.0" fill="hsl(272,29%,45%)" stroke="hsl(272,29%,40%)" stroke-width="0.5"/><polygon points="348.3,375.3 441.8,381.8 375.5,484.7" fill="hsl(272,29%,46%)" stroke="hsl(272,29%,41%)" stroke-width="0.5"/><polygon points="441.8,381.8 573.1,349.0 456.9,460.3" fill="hsl(272,29%,50%)" stroke="hsl(272,29%,45%)" stroke-width="0.5"/><polygon points="441.8,381.8 375.5,484.7 456.9,460.3" fill="hsl(272,29%,52%)" stroke="hsl(272,29%,47%)" stroke-width="0.5"/><polygon points="573.1,349.0 456.9,460.3 543.4,489.6" fill="hsl(272,29%,51%)" stroke="hsl(272,29%,46%)" stroke-width="0.5"/><polygon points="573.1,349.0 611.4,381.7 611.9,443.2" fill="hsl(272,29%,50%)" stroke="hsl(272,29%,45%)" stroke-width="0.5"/><polygon points="573.1,349.0 543.4,489.6 611.9,443.2" fill="hsl(272,29%,52%)" stroke="hsl(272,29%,47%)" stroke-width="0.5"/><polygon points="375.5,484.7 456.9,460.3 485.8,546.6" fill="hsl(272,29%,53%)" stroke="hsl(272,29%,48%)" stroke-width="0.5"/><polygon points="375.5,484.7 360.7,532.1 485.8,546.6" fill="hsl(272,29%,56%)" stroke="hsl(272,29%,51%)" stroke-width="0.5"/><polygon points="456.9,460.3 543.4,489.6 485.8,546.6" fill="hsl(272,29%,49%)" stroke="hsl(272,29%,44%)" stroke-width="0.5"/><polygon points="543.4,489.6 485.8,546.6 524.4,555.1" fill="hsl(272,29%,55%)" stroke="hsl(272,29%,50%)" stroke-width="0.5"/><polygon points="291.1,568.8 360.7,532.1 383.8,666.7" fill="hsl(272,29%,58%)" stroke="hsl(272,29%,53%)" stroke-width="0.5"/><polygon points="291.1,568.8 268.4,658.4 383.8,666.7" fill="hsl(272,29%,56%)" stroke="hsl(272,29%,51%)" stroke-width="0.5"/><polygon points="360.7,532.1 485.8,546.6 453.0,655.3" fill="hsl(272,29%,55%)" stroke="hsl(272,29%,50%)" stroke-width="0.5"/><polygon points="360.7,532.1 383.8,666.7 453.0,655.3" fill="hsl(272,29%,61%)" stroke="hsl(272,29%,56%)" stroke-width="0.5"/><polygon points="485.8,546.6 524.4,555.1 530.3,628.9" fill="hsl(272,29%,59%)" stroke="hsl(272,29%,54%)" stroke-width="0.5"/><polygon points="485.8,546.6 453.0,655.3 530.3,628.9" fill="hsl(272,29%,55%)" stroke="hsl(272,29%,50%)" stroke-width="0.5"/><polygon points="453.0,655.3 530.3,628.9 474.3,720.2" fill="hsl(272,29%,59%)" stroke="hsl(272,29%,54%)" stroke-width="0.5"/><polygon points="383.8,666.7 453.0,655.3 474.3,720.2" fill="hsl(272,29%,60%)" stroke="hsl(272,29%,55%)" stroke-width="0.5"/><polygon points="383.8,666.7 380.2,752.0 474.3,720.2" fill="hsl(272,29%,57%)" stroke="hsl(272,29%,52%)" stroke-width="0.5"/><polygon points="530.3,628.9 474.3,720.2 557.5,743.8" fill="hsl(272,29%,57%)" stroke="hsl(272,29%,52%)" stroke-width="0.5"/><polygon points="380.2,752.0 303.5,820.3 370.6,844.0" fill="hsl(272,29%,62%)" stroke="hsl(272,29%,57%)" stroke-width="0.5"/><polygon points="380.2,752.0 474.3,720.2 468.5,820.7" fill="hsl(272,29%,67%)" stroke="hsl(272,29%,62%)" stroke-width="0.5"/><polygon points="380.2,752.0 370.6,844.0 468.5,820.7" fill="hsl(272,29%,61%)" stroke="hsl(272,29%,56%)" stroke-width="0.5"/><polygon points="474.3,720.2 557.5,743.8 468.5,820.7" fill="hsl(272,29%,65%)" stroke="hsl(272,29%,60%)" stroke-width="0.5"/><polygon points="557.5,743.8 468.5,820.7 539.8,832.3" fill="hsl(272,29%,61%)" stroke="hsl(272,29%,56%)" stroke-width="0.5"/><polygon points="370.6,844.0 468.5,820.7 391.3,931.4" fill="hsl(272,29%,66%)" stroke="hsl(272,29%,61%)" stroke-width="0.5"/><polygon points="468.5,820.7 391.3,931.4 457.8,948.3" fill="hsl(272,29%,68%)" stroke="hsl(272,29%,63%)" stroke-width="0.5"/><polygon points="468.5,820.7 539.8,832.3 530.6,933.9" fill="hsl(272,29%,71%)" stroke="hsl(272,29%,66%)" stroke-width="0.5"/><polygon points="468.5,820.7 457.8,948.3 530.6,933.9" fill="hsl(272,29%,69%)" stroke="hsl(272,29%,64%)" stroke-width="0.5"/><polygon points="391.3,931.4 457.8,948.3 454.9,1002.2" fill="hsl(272,29%,70%)" stroke="hsl(272,29%,65%)" stroke-width="0.5"/><polygon points="391.3,931.4 393.5,1023.8 454.9,1002.2" fill="hsl(272,29%,75%)" stroke="hsl(272,29%,70%)" stroke-width="0.5"/><polygon points="457.8,948.3 530.6,933.9 536.8,990.5" fill="hsl(272,29%,73%)" stroke="hsl(272,29%,68%)" stroke-width="0.5"/><polygon points="457.8,948.3 454.9,1002.2 536.8,990.5" fill="hsl(272,29%,71%)" stroke="hsl(272,29%,66%)" stroke-width="0.5"/><polygon points="393.5,1023.8 454.9,1002.2 449.3,1118.3" fill="hsl(272,29%,77%)" stroke="hsl(272,29%,72%)" stroke-width="0.5"/><polygon points="393.5,1023.8 336.9,1130.5 449.3,1118.3" fill="hsl(272,29%,78%)" stroke="hsl(272,29%,73%)" stroke-width="0.5"/><polygon points="454.9,1002.2 536.8,990.5 449.3,1118.3" fill="hsl(272,29%,78%)" stroke="hsl(272,29%,73%)" stroke-width="0.5"/><polygon points="536.8,990.5 449.3,1118.3 569.7,1136.8" fill="hsl(272,29%,79%)" stroke="hsl(272,29%,74%)" stroke-width="0.5"/><polygon points="336.9,1130.5 449.3,1118.3 432.0,1189.4" fill="hsl(272,29%,80%)" stroke="hsl(272,29%,75%)" stroke-width="0.5"/><polygon points="449.3,1118.3 569.7,1136.8 547.2,1187.0" fill="hsl(272,29%,80%)" stroke="hsl(272,29%,75%)" stroke-width="0.5"/><polygon points="449.3,1118.3 432.0,1189.4 547.2,1187.0" fill="hsl(272,29%,78%)" stroke="hsl(272,29%,73%)" stroke-width="0.5"/><polygon points="1271.8,114.7 1388.1,118.6 1358.1,195.7" fill="hsl(266,29%,47%)" stroke="hsl(266,29%,42%)" stroke-width="0.5"/><polygon points="1271.8,114.7 1261.6,171.9 1358.1,195.7" fill="hsl(272,29%,55%)" stroke="hsl(272,29%,50%)" stroke-width="0.5"/><polygon points="1388.1,118.6 1486.5,77.2 1476.1,184.0" fill="hsl(284,29%,51%)" stroke="hsl(284,29%,46%)" stroke-width="0.5"/><polygon points="1388.1,118.6 1358.1,195.7 1476.1,184.0" fill="hsl(281,29%,46%)" stroke="hsl(281,29%,41%)" stroke-width="0.5"/><polygon points="1486.5,77.2 1476.1,184.0 1546.9,172.7" fill="hsl(286,29%,46%)" stroke="hsl(286,29%,41%)" stroke-width="0.5"/><polygon points="1261.6,171.9 1358.1,195.7 1288.0,298.4" fill="hsl(283,29%,57%)" stroke="hsl(283,29%,52%)" stroke-width="0.5"/><polygon points="1358.1,195.7 1476.1,184.0 1392.2,265.9" fill="hsl(271,29%,46%)" stroke="hsl(271,29%,41%)" stroke-width="0.5"/><polygon points="1358.1,195.7 1288.0,298.4 1392.2,265.9" fill="hsl(277,29%,45%)" stroke="hsl(277,29%,40%)" stroke-width="0.5"/><polygon points="1476.1,184.0 1392.2,265.9 1448.5,301.7" fill="hsl(262,29%,54%)" stroke="hsl(262,29%,49%)" stroke-width="0.5"/><polygon points="1288.0,298.4 1392.2,265.9 1379.7,341.7" fill="hsl(269,29%,58%)" stroke="hsl(269,29%,53%)" stroke-width="0.5"/><polygon points="1288.0,298.4 1273.1,395.9 1379.7,341.7" fill="hsl(276,29%,55%)" stroke="hsl(276,29%,50%)" stroke-width="0.5"/><polygon points="1392.2,265.9 1448.5,301.7 1379.7,341.7" fill="hsl(263,29%,57%)" stroke="hsl(263,29%,52%)" stroke-width="0.5"/><polygon points="1448.5,301.7 1379.7,341.7 1452.2,394.7" fill="hsl(276,29%,53%)" stroke="hsl(276,29%,48%)" stroke-width="0.5"/><polygon points="1448.5,301.7 1452.2,394.7 1539.0,386.5" fill="hsl(259,29%,56%)" stroke="hsl(259,29%,51%)" stroke-width="0.5"/><polygon points="1273.1,395.9 1379.7,341.7 1390.6,478.8" fill="hsl(277,29%,55%)" stroke="hsl(277,29%,50%)" stroke-width="0.5"/><polygon points="1273.1,395.9 1278.6,472.9 1390.6,478.8" fill="hsl(277,29%,52%)" stroke="hsl(277,29%,47%)" stroke-width="0.5"/><polygon points="1379.7,341.7 1452.2,394.7 1390.6,478.8" fill="hsl(270,29%,55%)" stroke="hsl(270,29%,50%)" stroke-width="0.5"/><polygon points="1452.2,394.7 1390.6,478.8 1443.9,446.8" fill="hsl(284,29%,49%)" stroke="hsl(284,29%,44%)" stroke-width="0.5"/><polygon points="1452.2,394.7 1539.0,386.5 1546.5,458.6" fill="hsl(263,29%,56%)" stroke="hsl(263,29%,51%)" stroke-width="0.5"/><polygon points="1452.2,394.7 1443.9,446.8 1546.5,458.6" fill="hsl(270,29%,53%)" stroke="hsl(270,29%,48%)" stroke-width="0.5"/><polygon points="1278.6,472.9 1390.6,478.8 1352.7,544.8" fill="hsl(280,29%,57%)" stroke="hsl(280,29%,52%)" stroke-width="0.5"/><polygon points="1390.6,478.8 1443.9,446.8 1470.7,575.6" fill="hsl(284,29%,57%)" stroke="hsl(284,29%,52%)" stroke-width="0.5"/><polygon points="1443.9,446.8 1546.5,458.6 1470.7,575.6" fill="hsl(283,29%,52%)" stroke="hsl(283,29%,47%)" stroke-width="0.5"/><polygon points="1390.6,478.8 1352.7,544.8 1470.7,575.6" fill="hsl(283,29%,50%)" stroke="hsl(283,29%,45%)" stroke-width="0.5"/><polygon points="1546.5,458.6 1470.7,575.6 1556.3,573.9" fill="hsl(282,29%,57%)" stroke="hsl(282,29%,52%)" stroke-width="0.5"/><polygon points="1352.7,544.8 1470.7,575.6 1362.9,656.9" fill="hsl(266,29%,59%)" stroke="hsl(266,29%,54%)" stroke-width="0.5"/><polygon points="1470.7,575.6 1556.3,573.9 1460.1,640.7" fill="hsl(274,29%,50%)" stroke="hsl(274,29%,45%)" stroke-width="0.5"/><polygon points="1470.7,575.6 1362.9,656.9 1460.1,640.7" fill="hsl(262,29%,60%)" stroke="hsl(262,29%,55%)" stroke-width="0.5"/><polygon points="1556.3,573.9 1460.1,640.7 1563.3,670.9" fill="hsl(261,29%,54%)" stroke="hsl(261,29%,49%)" stroke-width="0.5"/><polygon points="1362.9,656.9 1460.1,640.7 1465.4,720.0" fill="hsl(285,29%,62%)" stroke="hsl(285,29%,57%)" stroke-width="0.5"/><polygon points="1362.9,656.9 1349.0,756.9 1465.4,720.0" fill="hsl(276,29%,54%)" stroke="hsl(276,29%,49%)" stroke-width="0.5"/><polygon points="1460.1,640.7 1563.3,670.9 1465.4,720.0" fill="hsl(262,29%,51%)" stroke="hsl(262,29%,46%)" stroke-width="0.5"/><polygon points="1563.3,670.9 1465.4,720.0 1570.6,754.4" fill="hsl(284,29%,56%)" stroke="hsl(284,29%,51%)" stroke-width="0.5"/><polygon points="1349.0,756.9 1465.4,720.0 1372.0,809.0" fill="hsl(262,29%,64%)" stroke="hsl(262,29%,59%)" stroke-width="0.5"/><polygon points="1465.4,720.0 1372.0,809.0 1451.6,838.9" fill="hsl(281,29%,63%)" stroke="hsl(281,29%,58%)" stroke-width="0.5"/><polygon points="1465.4,720.0 1570.6,754.4 1546.9,809.2" fill="hsl(278,29%,62%)" stroke="hsl(278,29%,57%)" stroke-width="0.5"/><polygon points="1465.4,720.0 1451.6,838.9 1546.9,809.2" fill="hsl(263,29%,54%)" stroke="hsl(263,29%,49%)" stroke-width="0.5"/><polygon points="1372.0,809.0 1451.6,838.9 1373.7,897.4" fill="hsl(259,29%,58%)" stroke="hsl(259,29%,53%)" stroke-width="0.5"/><polygon points="1451.6,838.9 1373.7,897.4 1438.4,934.8" fill="hsl(286,29%,66%)" stroke="hsl(286,29%,61%)" stroke-width="0.5"/><polygon points="1451.6,838.9 1546.9,809.2 1530.2,912.3" fill="hsl(283,29%,60%)" stroke="hsl(283,29%,55%)" stroke-width="0.5"/><polygon points="1451.6,838.9 1438.4,934.8 1530.2,912.3" fill="hsl(280,29%,65%)" stroke="hsl(280,29%,60%)" stroke-width="0.5"/><polygon points="1373.7,897.4 1438.4,934.8 1391.2,999.3" fill="hsl(278,29%,65%)" stroke="hsl(278,29%,60%)" stroke-width="0.5"/><polygon points="1438.4,934.8 1530.2,912.3 1470.1,1034.1" fill="hsl(281,29%,66%)" stroke="hsl(281,29%,61%)" stroke-width="0.5"/><polygon points="1438.4,934.8 1391.2,999.3 1470.1,1034.1" fill="hsl(267,29%,64%)" stroke="hsl(267,29%,59%)" stroke-width="0.5"/><polygon points="1530.2,912.3 1470.1,1034.1 1574.5,1002.5" fill="hsl(284,29%,60%)" stroke="hsl(284,29%,55%)" stroke-width="0.5"/><polygon points="1391.2,999.3 1470.1,1034.1 1371.9,1122.7" fill="hsl(287,29%,69%)" stroke="hsl(287,29%,64%)" stroke-width="0.5"/><polygon points="1470.1,1034.1 1371.9,1122.7 1489.1,1090.9" fill="hsl(262,29%,68%)" stroke="hsl(262,29%,63%)" stroke-width="0.5"/><polygon points="1470.1,1034.1 1574.5,1002.5 1550.4,1100.2" fill="hsl(285,29%,59%)" stroke="hsl(285,29%,54%)" stroke-width="0.5"/><polygon points="1470.1,1034.1 1489.1,1090.9 1550.4,1100.2" fill="hsl(283,29%,58%)" stroke="hsl(283,29%,53%)" stroke-width="0.5"/></svg>